<?xml version="1.0" encoding="UTF-8" standalone="no"?>
<svg width="693px" height="527px" viewBox="0 0 693 527" version="1.1" xmlns="http://www.w3.org/2000/svg" xmlns:xlink="http://www.w3.org/1999/xlink">
    <!-- Generator: Sketch 39.1 (31720) - http://www.bohemiancoding.com/sketch -->
    <title>1472149122_resolutions-10</title>
    <desc>Created with Sketch.</desc>
    <defs></defs>
    <g id="Page-1" stroke="none" stroke-width="1" fill="none" fill-rule="evenodd">
        <g id="Desktop-HD" transform="translate(-373.000000, -979.000000)">
            <g id="1472149122_resolutions-10" transform="translate(352.000000, 984.000000)">
                <g id="Layer_1">
                    <path d="M735.172196,565.512069 L462.120144,152.701199 C453.061545,138.466342 431.062091,138.466342 422.003492,152.701199 L361.181471,247.168891 L295.183108,152.701199 C286.124509,138.466342 264.125055,138.466342 255.066456,152.701199 L0.131601921,565.512069 L735.172196,565.512069 L735.172196,565.512069 Z" id="Shape" fill="#C7C7C7"></path>
                    <path d="M422.003492,152.701199 L296.477193,349.401049 L295.183108,353.283283 L387.063182,344.224738 L414.238979,403.752324 L467.296486,332.578036 L619.998581,564.217991 L735.172196,564.217991 L462.120144,152.701199 C451.76746,138.466342 431.062091,138.466342 422.003492,152.701199 L422.003492,152.701199 Z" id="Shape" fill="#FFFFFF"></path>
                    <polyline id="Shape" stroke="#373737" stroke-width="10" points="296.477193 353.283283 387.063182 344.224738 415.533064 403.752324 468.590572 332.578036 621.292667 565.512069"></polyline>
                    <path d="M256.360541,152.701199 L194.244435,253.63928 L247.301942,223.875487 L274.477739,283.403073 L359.887385,248.462969 L296.477193,152.701199 C287.418595,138.466342 265.41914,138.466342 256.360541,152.701199 L256.360541,152.701199 Z" id="Shape" fill="#FFFFFF"></path>
                    <polyline id="Shape" stroke="#373737" stroke-width="10" points="194.244435 253.63928 247.301942 223.875487 274.477739 283.403073 359.887385 248.462969"></polyline>
                    <path d="M522.942165,332.578036 L675.64426,565.512069" id="Shape" stroke="#373737" stroke-width="10"></path>
                    <path d="M160.59821,565.512069 L422.003492,152.701199 C431.062091,138.466342 453.061545,137.172264 462.120144,152.701199 L736.466281,565.512069" id="Shape" stroke="#373737" stroke-width="10"></path>
                    <path d="M0.131601921,565.512069 L256.360541,152.701199 C265.41914,138.466342 287.418595,137.172264 296.477193,152.701199 L359.887385,248.462969" id="Shape" stroke="#373737" stroke-width="10"></path>
                    <polyline id="Shape" fill="#95B192" points="277.06591 0 406.474465 0 380.592754 42.7045727 406.474465 77.6446777 277.06591 77.6446777"></polyline>
                    <path d="M277,129.407796 L277,0" id="Shape" stroke="#373737" stroke-width="10"></path>
                    <polyline id="Shape" stroke="#373737" stroke-width="10" points="315.888477 0 406.474465 0 380.592754 42.7045727 406.474465 77.6446777 315.888477 77.6446777"></polyline>
                </g>
            </g>
        </g>
    </g>
</svg>