<?xml version="1.0" encoding="UTF-8" standalone="no"?>
<svg width="190px" height="148px" viewBox="0 0 190 148" version="1.1" xmlns="http://www.w3.org/2000/svg" xmlns:xlink="http://www.w3.org/1999/xlink">
    <!-- Generator: Sketch 39.1 (31720) - http://www.bohemiancoding.com/sketch -->
    <title>Group 2</title>
    <desc>Created with Sketch.</desc>
    <defs></defs>
    <g id="Page-1" stroke="none" stroke-width="1" fill="none" fill-rule="evenodd">
        <g id="Desktop-HD" transform="translate(-626.000000, -63.000000)">
            <g id="Group-2" transform="translate(626.000000, 63.000000)">
                <path d="M2.48364857,137.83253 L2.48364857,112.362687 C2.48364857,112.147911 2.57212371,111.952088 2.74907666,111.775213 C2.9260296,111.598338 3.12193885,111.509902 3.33681029,111.509902 L6.48402908,111.509902 C6.71154001,111.509902 6.91060909,111.59518 7.08124228,111.765738 C7.25187548,111.936296 7.3371908,112.135277 7.3371908,112.362687 L7.3371908,127.542259 L13.5178735,121.288503 C13.9223374,120.934753 14.2951969,120.757881 14.6364633,120.757881 L18.2955791,120.757881 C18.6621245,120.757881 18.9054312,120.912644 19.0255064,121.222175 C19.1455816,121.531706 19.0918645,121.812806 18.8643536,122.065484 L11.7736317,129.058321 L19.2245774,137.396662 C19.4647279,137.64934 19.5247646,137.927282 19.4046894,138.230496 C19.2846141,138.53371 19.0413075,138.685315 18.6747621,138.685315 L14.8639731,138.685315 C14.4847882,138.685315 14.2256824,138.571611 14.086648,138.344201 L7.3371908,130.27117 L7.3371908,137.83253 C7.3371908,138.072574 7.25503531,138.274714 7.09072186,138.438955 C6.92640841,138.603195 6.7241795,138.685315 6.48402908,138.685315 L3.33681029,138.685315 C3.10929936,138.685315 2.91023028,138.600037 2.73959708,138.429479 C2.56896388,138.258921 2.48364857,138.05994 2.48364857,137.83253 L2.48364857,137.83253 Z M21.3100839,132.981131 C21.3100839,131.338722 21.945209,129.990072 23.2154784,128.935141 C24.4857477,127.880209 26.2268122,127.352751 28.438724,127.352751 C28.9822224,127.352751 29.5415117,127.396969 30.1166087,127.485406 C30.6917058,127.573844 31.1309217,127.655963 31.4342696,127.731766 L31.9082484,127.864422 C31.9461668,126.689468 31.7755362,125.830374 31.3963513,125.287116 C31.0171664,124.743858 30.3599225,124.472233 29.4245998,124.472233 C28.6535905,124.472233 27.7561998,124.541718 26.7324006,124.680691 C25.7086014,124.819664 24.9186447,124.971269 24.3625069,125.13551 C24.084438,125.223947 23.8569305,125.189205 23.6799775,125.031281 C23.5030246,124.873357 23.3955905,124.649108 23.357672,124.358528 L22.978489,122.349746 C22.8520941,121.768586 23.0416837,121.402208 23.5472635,121.250601 C23.7242164,121.174797 24.0844367,121.073728 24.627935,120.947389 C25.1714333,120.821049 25.9297917,120.691554 26.9030329,120.558898 C27.8762741,120.426242 28.8052632,120.359914 29.6900279,120.359914 C31.0550935,120.359914 32.1894712,120.53047 33.0931952,120.871585 C33.9969192,121.212701 34.6889212,121.740159 35.169222,122.453975 C35.6495229,123.167791 35.9813047,123.970033 36.1645774,124.860724 C36.3478501,125.751415 36.4394851,126.853707 36.4394851,128.167634 L36.4394851,137.83253 C36.4394851,138.072574 36.3573296,138.274714 36.1930161,138.438955 C36.0287027,138.603195 35.8264738,138.685315 35.5863233,138.685315 L34.278142,138.685315 C33.9495151,138.685315 33.6904093,138.476858 33.5008169,138.059939 L32.9889199,136.86604 C31.4342619,138.369476 29.5573248,139.121183 27.3580525,139.121183 C25.5506046,139.121183 24.0907647,138.571616 22.978489,137.472465 C21.8662134,136.373315 21.3100839,134.876218 21.3100839,132.981131 L21.3100839,132.981131 Z M25.9550755,132.981131 C25.9550755,133.7518 26.1857428,134.364536 26.6470844,134.819356 C27.108426,135.274177 27.7498708,135.501584 28.5714381,135.501584 C29.2918894,135.501584 29.9712521,135.283653 30.6095466,134.847783 C31.2478412,134.411913 31.6364999,133.998158 31.7755343,133.606507 L31.7755343,130.953398 C30.9792461,130.599649 30.1008143,130.422776 29.1402126,130.422776 C28.1164134,130.422776 27.3296165,130.647025 26.7797985,131.095529 C26.2299804,131.544033 25.9550755,132.172561 25.9550755,132.981131 L25.9550755,132.981131 Z M41.2930273,137.83253 L41.2930273,112.362687 C41.2930273,112.147911 41.3815024,111.952088 41.5584554,111.775213 C41.7354083,111.598338 41.9313176,111.509902 42.146189,111.509902 L45.2934078,111.509902 C45.5082792,111.509902 45.7041885,111.598338 45.8811414,111.775213 C46.0580944,111.952088 46.1465695,112.147911 46.1465695,112.362687 L46.1465695,137.83253 C46.1465695,138.05994 46.0612542,138.258921 45.890621,138.429479 C45.7199878,138.600037 45.5209187,138.685315 45.2934078,138.685315 L42.146189,138.685315 C41.9186781,138.685315 41.719609,138.600037 41.5489758,138.429479 C41.3783426,138.258921 41.2930273,138.05994 41.2930273,137.83253 L41.2930273,137.83253 Z M51.1897033,137.83253 L51.1897033,112.362687 C51.1897033,112.147911 51.2781784,111.952088 51.4551313,111.775213 C51.6320843,111.598338 51.8279935,111.509902 52.042865,111.509902 L55.1900838,111.509902 C55.4049552,111.509902 55.6008645,111.598338 55.7778174,111.775213 C55.9547703,111.952088 56.0432455,112.147911 56.0432455,112.362687 L56.0432455,137.83253 C56.0432455,138.05994 55.9579302,138.258921 55.787297,138.429479 C55.6166638,138.600037 55.4175947,138.685315 55.1900838,138.685315 L52.042865,138.685315 C51.815354,138.685315 51.616285,138.600037 51.4456518,138.429479 C51.2750186,138.258921 51.1897033,138.05994 51.1897033,137.83253 L51.1897033,137.83253 Z M59.9677894,129.721598 C59.9677894,128.041287 60.3469686,126.490498 61.1053384,125.069182 C61.8637081,123.647867 62.9380492,122.507673 64.3283938,121.648567 C65.7187383,120.789461 67.2796927,120.359914 69.0113036,120.359914 C71.3622499,120.359914 73.3213424,121.143205 74.8886399,122.709811 C76.4559375,124.276416 77.2395745,126.266228 77.2395745,128.679305 C77.2395745,129.096224 77.2142959,129.481553 77.1637379,129.835302 C77.1510984,130.062713 77.0563036,130.255377 76.8793506,130.413301 C76.7023977,130.571225 76.5128081,130.650186 76.3105761,130.650186 L64.8213316,130.650186 C64.8466106,131.787238 65.2795069,132.763193 66.1200334,133.578081 C66.9605599,134.392968 68.0127821,134.800406 69.2767317,134.800406 C70.7681923,134.800406 72.0510819,134.364542 73.1254391,133.492802 C73.6183794,133.101151 74.0038783,133.101151 74.2819472,133.492802 L75.7986791,135.501584 C76.1652245,135.918504 76.1399459,136.310149 75.7228425,136.676532 C73.8142786,138.306307 71.5897607,139.121183 69.0492219,139.121183 C67.3049715,139.121183 65.7345376,138.694794 64.3378733,137.842005 C62.941209,136.989216 61.8637081,135.849022 61.1053384,134.42139 C60.3469686,132.993758 59.9677894,131.427176 59.9677894,129.721598 L59.9677894,129.721598 Z M65.0867597,127.466455 L72.3481139,127.466455 C72.3101954,126.582081 71.9689342,125.843009 71.3243199,125.249215 C70.6797056,124.655421 69.8707899,124.358528 68.8975487,124.358528 C67.8358311,124.358528 66.9637189,124.649104 66.2811861,125.230264 C65.5986533,125.811424 65.2005152,126.556814 65.0867597,127.466455 L65.0867597,127.466455 Z M89.108002,129.721598 C89.108002,127.08111 90.0243517,124.860733 91.8570786,123.0604 C93.6898055,121.260067 95.9396021,120.359914 98.6065358,120.359914 C101.172353,120.359914 103.403191,121.370612 105.299116,123.392039 C105.476068,123.594181 105.539265,123.808955 105.488707,124.036365 C105.438149,124.263775 105.311756,124.478549 105.109524,124.680691 L103.460078,126.462064 C103.131451,126.828448 102.745952,126.790547 102.30357,126.34836 C101.216573,125.312379 100.028478,124.794396 98.7392498,124.794396 C97.3615448,124.794396 96.227167,125.268161 95.3360825,126.215704 C94.444998,127.163248 93.9994625,128.331867 93.9994625,129.721598 C93.9994625,131.136596 94.4386784,132.317849 95.3171234,133.265393 C96.1955684,134.212936 97.3236265,134.686701 98.7013315,134.686701 C99.3080273,134.686701 99.8736363,134.572997 100.398175,134.345587 C100.922714,134.118177 101.317693,133.884453 101.583122,133.644408 C101.848552,133.404364 102.151895,133.094838 102.493161,132.71582 C102.632196,132.564213 102.818626,132.472619 103.052456,132.441034 C103.286287,132.409449 103.479036,132.456826 103.63071,132.583165 L105.374952,134.061325 C105.855253,134.478245 105.956367,134.907791 105.678298,135.349978 C104.073082,137.864127 101.703213,139.121183 98.5686175,139.121183 C96.8370065,139.121183 95.2507736,138.716903 93.809871,137.908333 C92.3689684,137.099762 91.2251112,135.975361 90.378265,134.535095 C89.5314187,133.094829 89.108002,131.490346 89.108002,129.721598 L89.108002,129.721598 Z M113.205081,137.643022 L107.612132,121.913878 C107.498376,121.59803 107.514175,121.326405 107.65953,121.098995 C107.804884,120.871584 108.04819,120.757881 108.389457,120.757881 L112.124409,120.757881 C112.516234,120.757881 112.75638,120.922119 112.844857,121.250601 L116.067912,131.97674 L116.162708,131.97674 L120.238925,121.250601 C120.36532,121.035824 120.504353,120.900012 120.656026,120.843159 C120.8077,120.786307 121.041528,120.757881 121.357515,120.757881 L124.656407,120.757881 C124.997673,120.757881 125.2473,120.874743 125.405293,121.10847 C125.563287,121.342198 125.572767,121.610664 125.433732,121.913878 L114.873486,147.383721 C114.810288,147.522694 114.706014,147.645873 114.56066,147.753261 C114.415306,147.860649 114.260474,147.914342 114.096161,147.914342 L110.361208,147.914342 C110.019942,147.914342 109.770316,147.794322 109.612322,147.554278 C109.454328,147.314233 109.444849,147.036291 109.583883,146.720444 L113.205081,137.643022 Z M128.637828,137.83253 L128.637828,112.362687 C128.637828,112.147911 128.726304,111.952088 128.903256,111.775213 C129.080209,111.598338 129.276119,111.509902 129.49099,111.509902 L132.638209,111.509902 C132.86572,111.509902 133.064789,111.59518 133.235422,111.765738 C133.406055,111.936296 133.491371,112.135277 133.491371,112.362687 L133.491371,127.542259 L139.672053,121.288503 C140.076517,120.934753 140.449377,120.757881 140.790643,120.757881 L144.449759,120.757881 C144.816304,120.757881 145.059611,120.912644 145.179686,121.222175 C145.299761,121.531706 145.246044,121.812806 145.018533,122.065484 L137.927812,129.058321 L145.378757,137.396662 C145.618908,137.64934 145.678944,137.927282 145.558869,138.230496 C145.438794,138.53371 145.195487,138.685315 144.828942,138.685315 L141.018153,138.685315 C140.638968,138.685315 140.379862,138.571611 140.240828,138.344201 L133.491371,130.27117 L133.491371,137.83253 C133.491371,138.072574 133.409215,138.274714 133.244902,138.438955 C133.080588,138.603195 132.878359,138.685315 132.638209,138.685315 L129.49099,138.685315 C129.263479,138.685315 129.06441,138.600037 128.893777,138.429479 C128.723144,138.258921 128.637828,138.05994 128.637828,137.83253 L128.637828,137.83253 Z M148.734527,137.83253 L148.734527,112.362687 C148.734527,112.147911 148.823002,111.952088 148.999955,111.775213 C149.176908,111.598338 149.372817,111.509902 149.587688,111.509902 L152.734907,111.509902 C152.949779,111.509902 153.145688,111.598338 153.322641,111.775213 C153.499594,111.952088 153.588069,112.147911 153.588069,112.362687 L153.588069,137.83253 C153.588069,138.05994 153.502754,138.258921 153.33212,138.429479 C153.161487,138.600037 152.962418,138.685315 152.734907,138.685315 L149.587688,138.685315 C149.360177,138.685315 149.161108,138.600037 148.990475,138.429479 C148.819842,138.258921 148.734527,138.05994 148.734527,137.83253 L148.734527,137.83253 Z M157.36094,132.981131 C157.36094,131.338722 157.996065,129.990072 159.266334,128.935141 C160.536603,127.880209 162.277668,127.352751 164.48958,127.352751 C165.033078,127.352751 165.592367,127.396969 166.167465,127.485406 C166.742562,127.573844 167.181777,127.655963 167.485125,127.731766 L167.959104,127.864422 C167.997023,126.689468 167.826392,125.830374 167.447207,125.287116 C167.068022,124.743858 166.410778,124.472233 165.475456,124.472233 C164.704446,124.472233 163.807056,124.541718 162.783256,124.680691 C161.759457,124.819664 160.969501,124.971269 160.413363,125.13551 C160.135294,125.223947 159.907786,125.189205 159.730833,125.031281 C159.55388,124.873357 159.446446,124.649108 159.408528,124.358528 L159.029345,122.349746 C158.90295,121.768586 159.092539,121.402208 159.598119,121.250601 C159.775072,121.174797 160.135292,121.073728 160.678791,120.947389 C161.222289,120.821049 161.980647,120.691554 162.953889,120.558898 C163.92713,120.426242 164.856119,120.359914 165.740884,120.359914 C167.105949,120.359914 168.240327,120.53047 169.144051,120.871585 C170.047775,121.212701 170.739777,121.740159 171.220078,122.453975 C171.700379,123.167791 172.03216,123.970033 172.215433,124.860724 C172.398706,125.751415 172.490341,126.853707 172.490341,128.167634 L172.490341,137.83253 C172.490341,138.072574 172.408185,138.274714 172.243872,138.438955 C172.079558,138.603195 171.87733,138.685315 171.637179,138.685315 L170.328998,138.685315 C170.000371,138.685315 169.741265,138.476858 169.551673,138.059939 L169.039776,136.86604 C167.485118,138.369476 165.608181,139.121183 163.408908,139.121183 C161.60146,139.121183 160.14162,138.571616 159.029345,137.472465 C157.917069,136.373315 157.36094,134.876218 157.36094,132.981131 L157.36094,132.981131 Z M162.005931,132.981131 C162.005931,133.7518 162.236599,134.364536 162.69794,134.819356 C163.159282,135.274177 163.800727,135.501584 164.622294,135.501584 C165.342745,135.501584 166.022108,135.283653 166.660402,134.847783 C167.298697,134.411913 167.687356,133.998158 167.82639,133.606507 L167.82639,130.953398 C167.030102,130.599649 166.15167,130.422776 165.191068,130.422776 C164.167269,130.422776 163.380472,130.647025 162.830654,131.095529 C162.280836,131.544033 162.005931,132.172561 162.005931,132.981131 L162.005931,132.981131 Z M177.305965,137.83253 L177.305965,121.610666 C177.305965,121.357987 177.39128,121.152689 177.561913,120.994765 C177.732546,120.836842 177.931616,120.757881 178.159126,120.757881 L179.600022,120.757881 C179.966567,120.757881 180.225673,120.953704 180.377347,121.345355 L181.040917,123.088826 C181.318986,122.697175 181.644448,122.321322 182.017313,121.961255 C182.390178,121.601189 182.952628,121.244286 183.704678,120.890536 C184.456728,120.536787 185.249844,120.359914 186.084051,120.359914 C187.221606,120.359914 188.128476,120.514678 188.804689,120.824209 C189.480902,121.133739 189.69893,121.566444 189.458779,122.122337 L188.302271,124.756494 C188.213795,124.971271 188.068443,125.1134 187.866211,125.182887 C187.663979,125.252373 187.45543,125.236581 187.240559,125.13551 C186.72234,124.9081 186.16621,124.794396 185.572154,124.794396 C184.712668,124.794396 183.979588,124.999694 183.372893,125.410296 C182.766197,125.820898 182.361739,126.234653 182.159507,126.651572 L182.159507,137.83253 C182.159507,138.401056 181.824565,138.685315 181.154672,138.685315 L178.159126,138.685315 C177.931616,138.685315 177.732546,138.600037 177.561913,138.429479 C177.39128,138.258921 177.305965,138.05994 177.305965,137.83253 L177.305965,137.83253 Z" id="kalle-cyklar" fill="#373737"></path>
                <g id="1472146175_vehicles-16" fill="#95B192">
                    <g id="Layer_1">
                        <path d="M139.917071,30.2528241 C137.648146,30.2528241 134.622912,30.2528241 132.353986,31.0091447 L121.009359,0 L113.446274,0 L102.101647,0 C99.8327212,0 98.3201043,1.5126412 98.3201043,3.78160301 C98.3201043,6.05056482 99.8327212,7.56320602 102.101647,7.56320602 L116.471508,7.56320602 L122.521976,22.6896181 L80.1687004,22.6896181 L77.8997749,15.126412 L86.9754768,15.126412 C89.2444023,15.126412 90.7570193,13.6137708 90.7570193,11.344809 C90.7570193,9.07584723 89.2444023,7.56320602 86.9754768,7.56320602 L75.6308494,7.56320602 L68.0677645,7.56320602 L64.286222,7.56320602 C62.0172965,7.56320602 60.5046795,9.07584723 60.5046795,11.344809 C60.5046795,13.6137708 62.0172965,15.126412 64.286222,15.126412 L68.0677645,15.126412 L51.4289776,34.7907477 C46.1348181,31.7654653 40.0843502,30.2528241 34.0338822,30.2528241 C15.1261699,30.2528241 0,45.3792361 0,64.2872512 C0,83.1952663 15.1261699,98.3216783 34.0338822,98.3216783 C51.4289776,98.3216783 65.798839,84.7079075 67.311456,68.0688542 L75.6308494,68.0688542 C77.1434664,72.6067778 81.6813174,75.6320602 86.2191683,75.6320602 C90.7570193,75.6320602 95.2948703,72.6067778 96.8074873,68.0688542 L105.126881,68.0688542 C107.395806,84.7079075 121.009359,98.3216783 138.404454,98.3216783 C157.312167,98.3216783 172.438337,83.1952663 172.438337,64.2872512 C172.438337,45.3792361 158.824784,30.2528241 139.917071,30.2528241 L139.917071,30.2528241 Z M133.866603,54.4550834 C131.597678,55.9677246 130.085061,57.4803658 129.328753,60.5056482 L114.202583,60.5056482 C115.7152,51.429801 121.009359,43.8665949 129.328753,40.0849919 L133.866603,54.4550834 L133.866603,54.4550834 Z M34.0338822,90.7584723 C19.6640209,90.7584723 7.56308494,78.6573427 7.56308494,64.2872512 C7.56308494,49.9171598 19.6640209,37.8160301 34.0338822,37.8160301 C38.5717332,37.8160301 43.1095842,39.3286713 46.1348181,40.8413125 L36.3028077,52.9424422 L34.0338822,52.9424422 C27.9834143,52.9424422 22.6892548,58.2366864 22.6892548,64.2872512 C22.6892548,70.337816 27.9834143,75.6320602 34.0338822,75.6320602 C39.3280417,75.6320602 43.1095842,72.6067778 44.6222012,68.0688542 L59.748371,68.0688542 C58.2357541,80.9263045 47.6474351,90.7584723 34.0338822,90.7584723 L34.0338822,90.7584723 Z M37.8154247,64.2872512 C37.8154247,66.556213 36.3028077,68.0688542 34.0338822,68.0688542 C31.7649568,68.0688542 30.2523398,66.556213 30.2523398,64.2872512 C30.2523398,62.0182894 31.7649568,60.5056482 34.0338822,60.5056482 C36.3028077,60.5056482 37.8154247,62.0182894 37.8154247,64.2872512 L37.8154247,64.2872512 Z M44.6222012,60.5056482 C43.8658927,58.993007 43.1095842,57.4803658 41.5969672,55.9677246 L51.4289776,44.6229155 C55.9668286,48.4045186 58.9920626,54.4550834 60.5046795,60.5056482 L44.6222012,60.5056482 L44.6222012,60.5056482 Z M76.3871579,60.5056482 L67.311456,60.5056482 C66.5551475,51.429801 62.0172965,43.8665949 55.9668286,38.5723507 L71.849307,19.6643357 L81.6813174,54.4550834 C79.4123919,55.9677246 77.1434664,58.2366864 76.3871579,60.5056482 L76.3871579,60.5056482 Z M86.9754768,68.0688542 C84.7065514,68.0688542 83.1939344,66.556213 83.1939344,64.2872512 C83.1939344,62.0182894 84.7065514,60.5056482 86.9754768,60.5056482 C89.2444023,60.5056482 90.7570193,62.0182894 90.7570193,64.2872512 C90.7570193,66.556213 89.2444023,68.0688542 86.9754768,68.0688542 L86.9754768,68.0688542 Z M97.5637958,60.5056482 C96.0511788,56.7240452 93.0259448,53.6987628 88.4880938,52.9424422 L81.6813174,30.2528241 L124.034593,30.2528241 L125.54721,33.2781065 C114.958891,37.8160301 107.395806,48.4045186 105.883189,60.5056482 L97.5637958,60.5056482 L97.5637958,60.5056482 Z M139.917071,90.7584723 C126.303519,90.7584723 115.7152,80.9263045 114.202583,68.0688542 L129.328753,68.0688542 C130.84137,72.6067778 135.37922,75.6320602 139.917071,75.6320602 C145.967539,75.6320602 151.261699,70.337816 151.261699,64.2872512 C151.261699,58.2366864 146.723848,53.6987628 140.67338,52.9424422 L135.37922,37.8160301 C136.891837,37.8160301 138.404454,37.0597095 139.917071,37.0597095 C154.286933,37.0597095 166.387869,49.1608392 166.387869,63.5309306 C166.387869,77.9010221 154.286933,90.7584723 139.917071,90.7584723 L139.917071,90.7584723 Z M136.135529,64.2872512 C136.135529,62.0182894 137.648146,60.5056482 139.917071,60.5056482 C142.185997,60.5056482 143.698614,62.0182894 143.698614,64.2872512 C143.698614,66.556213 142.185997,68.0688542 139.917071,68.0688542 C137.648146,68.0688542 136.135529,66.556213 136.135529,64.2872512 L136.135529,64.2872512 Z" id="Shape"></path>
                    </g>
                </g>
            </g>
        </g>
    </g>
</svg>